<?xml version="1.0" encoding="UTF-8"?>
<svg id="c" data-name="Body" xmlns="http://www.w3.org/2000/svg" viewBox="0 0 451.63 147.09">
  <defs>
    <style>
      .f {
        fill: #fff;
      }

      .g {
        fill: #b8d134;
      }
    </style>
  </defs>
  <g>
    <g>
      <path class="f" d="M148.97,103.09v7.08h11.67v3.81h-11.67v10.29h-4.41v-24.99h17.55v3.81h-13.15Z"/>
      <path class="f" d="M169.76,99.29h6.38l8.6,24.99h-4.55l-2.22-6.63h-10.04l-2.22,6.63h-4.51l8.56-24.99ZM176.7,113.88l-3.74-11.1-3.74,11.1h7.47Z"/>
      <path class="f" d="M186.07,118.35c0-.25,0-.28.04-.39l4.37-.53v.25c0,2.36.88,3.17,3.49,3.17h4.3c2.57,0,3.45-.81,3.45-3.21v-.6c0-1.94-.67-2.5-3.42-2.89l-6.1-.88c-4.41-.63-5.99-2.15-5.99-5.81v-2.18c0-4.33,2.11-6.34,6.63-6.34h6.52c4.55,0,6.62,2.01,6.62,6.27v.39l-4.4.53v-.25c0-2.33-.88-3.14-3.45-3.14h-3.98c-2.61,0-3.52.81-3.52,3.21v.42c0,1.97.6,2.47,3.45,2.89l6.1.88c4.44.64,5.96,2.15,5.96,5.85v2.33c0,4.3-2.08,6.31-6.63,6.31h-6.77c-4.55,0-6.66-2.01-6.66-6.27Z"/>
      <path class="f" d="M215.81,103.09h-7.89v-3.81h20.23v3.81h-7.93v21.18h-4.41v-21.18Z"/>
      <path class="f" d="M235.23,103.09v6.45h11.66v3.77h-11.66v7.19h13.14v3.77h-17.55v-24.99h17.55v3.81h-13.14Z"/>
      <path class="f" d="M251.79,99.29h4.37l11.28,17.76v-17.76h4.4v24.99h-4.33l-11.31-17.83v17.83h-4.41v-24.99Z"/>
      <path class="f" d="M280.93,103.09v6.45h11.66v3.77h-11.66v7.19h13.14v3.77h-17.55v-24.99h17.55v3.81h-13.14Z"/>
      <path class="f" d="M297.56,99.29h12.58c4.51,0,6.63,2.01,6.63,6.34v2.71c0,3.84-1.69,5.85-5.22,6.24l7.37,9.69h-5.18l-7.51-9.62h-4.26v9.62h-4.41v-24.99ZM308.87,110.85c2.61,0,3.49-.78,3.49-3.17v-1.37c0-2.4-.88-3.21-3.49-3.21h-6.91v7.75h6.91Z"/>
    </g>
    <g>
      <path class="f" d="M184.48,48.21v25.05c0,7.94-4.28,12.14-12.35,12.14h-27.53v-49.33h27.53c8.07,0,12.35,4.21,12.35,12.14ZM170.68,50.48c0-2-.69-2.69-2.76-2.69h-9.52v25.87h9.52c2.07,0,2.76-.69,2.76-2.69v-20.49Z"/>
      <path class="f" d="M209.94,68.49h-4.76v16.9h-13.8v-49.33h27.53c8.07,0,12.35,4.21,12.35,12.14v8.14c0,5.52-2.07,9.25-6.07,10.97l11.8,18.08h-16.08l-10.97-16.9ZM205.18,56.76h9.52c2.07,0,2.76-.69,2.76-2.69v-3.59c0-2-.69-2.69-2.76-2.69h-9.52v8.97Z"/>
      <path class="f" d="M271.76,75.67h-16.42l-2.83,9.73h-14.14l15.04-49.33h20.22l15.04,49.33h-14.14l-2.76-9.73ZM268.38,63.94l-4.83-16.9-4.9,16.9h9.73Z"/>
      <path class="f" d="M309.37,56.14h22.77v17.8c0,7.94-4.28,12.14-12.35,12.14h-16.35c-8.07,0-12.35-4.21-12.35-12.14v-26.43c0-7.93,4.28-12.14,12.35-12.14h16.35c8.07,0,12.35,4.21,12.35,12.14,0,.62,0,.83-.07,1.1l-13.73,1.66v-.48c0-2-.69-2.69-2.76-2.69h-7.93c-2.07,0-2.76.69-2.76,2.69v21.87c0,2,.69,2.69,2.76,2.69h7.93c2.07,0,2.76-.69,2.76-2.69v-3.8h-8.97v-11.73Z"/>
      <path class="f" d="M379.4,47.52v26.43c0,7.94-4.28,12.14-12.35,12.14h-16.35c-8.07,0-12.35-4.21-12.35-12.14v-26.43c0-7.93,4.28-12.14,12.35-12.14h16.35c8.07,0,12.35,4.21,12.35,12.14ZM362.84,47.1h-7.93c-2.07,0-2.76.69-2.76,2.69v21.87c0,2,.69,2.69,2.76,2.69h7.93c2.07,0,2.76-.69,2.76-2.69v-21.87c0-2-.69-2.69-2.76-2.69Z"/>
      <path class="f" d="M429.29,36.06v49.33h-13.32l-16.01-26.36v26.36h-13.8v-49.33h13.32l16.01,26.36v-26.36h13.8Z"/>
    </g>
  </g>
  <g>
    <g>
      <path class="g" d="M55.73,37.25c-.28.92-.6,1.78-.93,2.59h-20.45v-.3c1-.41,2.01-.87,3.03-1.36,9.88-4.78,16.06-11.33,19.18-15.15.53,3.06,1,8.27-.84,14.22Z"/>
      <path class="g" d="M85.58,34.54c-.75,2.43-1.73,4.48-2.68,6.12h-23.96v-1.95c2.63-.79,5.43-1.85,8.29-3.24,9.88-4.79,16.06-11.33,19.18-15.15.54,3.06.99,8.27-.83,14.22Z"/>
      <path class="g" d="M71.43,36.06h0c1.03-1.72,2.12-3.91,2.94-6.57,1.83-5.95,1.37-11.16.84-14.22-3.12,3.82-9.3,10.36-19.18,15.15-9.59,4.64-18.29,5.51-23.18,5.64v5.9h51.97l-13.39-5.9Z"/>
    </g>
    <path class="g" d="M55.22,47.65v8.29c0,2.13-1.35,4.03-3.36,4.73l-19.01,6.65v-8.29c0-2.13,1.35-4.03,3.36-4.73l19.01-6.65Z"/>
    <g>
      <polygon class="g" points="46.76 104.08 43.96 119.86 43.96 125.45 38.38 119.86 38.38 107.01 46.76 104.08"/>
      <polygon class="g" points="49.55 104.5 49.55 119.86 43.96 125.45 45.35 119.9 49.55 104.5"/>
    </g>
    <path class="g" d="M55.22,87.76v8.29c0,2.13-1.35,4.03-3.36,4.73l-19.01,6.65v-8.29c0-2.13,1.35-4.03,3.36-4.73l19.01-6.65Z"/>
    <path class="g" d="M55.22,74.39v8.29c0,2.13-1.35,4.03-3.36,4.73l-19.01,6.65v-8.29c0-2.13,1.35-4.03,3.36-4.73l19.01-6.65Z"/>
    <path class="g" d="M55.22,61.02v8.29c0,2.13-1.35,4.03-3.36,4.73l-19.01,6.65v-8.29c0-2.13,1.35-4.03,3.36-4.73l19.01-6.65Z"/>
    <path class="g" d="M41.96,125.42H11.87c11.49-.38,21.22-7.72,25.13-17.93v12.97l4.95,4.95Z"/>
    <path class="g" d="M100.26,42.27c-.49-.33-1.04-.67-1.67-1-.62-.33-1.2-.6-1.75-.82-1.88-.9-3.82-1.67-5.83-2.31-2.01-.63-4.07-1.13-6.2-1.47-2.13-.37-3.95-.53-5.25-.6h-46.72v11.12c-2.45,1.41-5.35,2.25-8.39,2.25-.64,0-1.26-.04-1.88-.1-.08-.01-.16-.02-.24-.03l.16.5,2.05,6.44c1.16,3.65,4.4,6.32,8.22,6.58h.09l12.61-4.41h38.52c14.74,10.32,14.71,34.35.06,44.67h-33.09v17.37c-.94.94-3.99,3.98-4.97,4.97h33.59c23.97-1.04,42.75-21.08,42.65-44.65.12-15.61-8.52-30.65-21.96-38.49ZM44.02,47.17h-6.85c1.85-2.05,4.19-3.64,6.85-4.57v4.57Z"/>
  </g>
</svg>